# xmcd
# 
# Track frame offsets:
#     150
#     13935
#     144783
#     194310
#     242319
#     284811
#     332531
# 
# Disc length: 4661
# 
# Revision: 2
# Processed by: cddbd v1.5.2PL0 Copyright (c) Steve Scherf et al.
# Submitted via: fre:ac v1.0.17
# 
DISCID=5d123307
DTITLE=Jon Kabat-Zinn - Guided Meditation Practices for the Mindful Way Through Depression
DYEAR=2007
DGENRE=Speech
TTITLE0=Introduction
TTITLE1=Body Scan
TTITLE2=Mindful Standing Yoga
TTITLE3=Mindfulness of the Breath
TTITLE4=Mindfulness of the Breath and Body
TTITLE5=Mindfulness of Sounds and Thoughts
TTITLE6=The Breathing Space
EXTD=\n\nCD accompanying the book The Mindful Way through Depression by Mark Wiliams, John Teasdale, Zindel Segal, and Jon Kabat-Zinn.\n
EXTT0=
EXTT1=
EXTT2=
EXTT3=
EXTT4=
EXTT5=
EXTT6=
PLAYORDER=
